ffmpeg started on 2016-11-26 at 01:55:29
Report written to "Output/NVENCh264/results/ffmpeg/sintelbd10000k.log"
Command line:
Tools/ffmpeg/ffmpeg -benchmark -y -i Input/y4m/sintel.y4m -c:v h264_nvenc -preset bd -b:v 10000k -an Output/NVENCh264/encoded/sintelbd10000k.mkv
ffmpeg version N-82227-gdb23fde Copyright (c) 2000-2016 the FFmpeg developers
  built with gcc 5.4.0 (Ubuntu 5.4.0-6ubuntu1~16.04.2) 20160609
  configuration: --prefix=/home/jaroslav/ffmpeg_build --pkg-config-flags=--static --extra-cflags=-I/home/jaroslav/ffmpeg_build/include --extra-ldflags=-L/home/jaroslav/ffmpeg_build/lib --bindir=/home/jaroslav/bin --enable-gpl --enable-libass --enable-libfdk-aac --enable-libfreetype --enable-libmp3lame --enable-libopus --enable-libtheora --enable-libvorbis --enable-libvpx --enable-libx264 --enable-libx265 --enable-nvenc --enable-libmfx --enable-libxvid --enable-libgsm --enable-libopencore-amrnb --enable-version3 --enable-nonfree
  libavutil      55. 35.100 / 55. 35.100
  libavcodec     57. 66.101 / 57. 66.101
  libavformat    57. 57.100 / 57. 57.100
  libavdevice    57.  2.100 / 57.  2.100
  libavfilter     6. 66.100 /  6. 66.100
  libswscale      4.  3.100 /  4.  3.100
  libswresample   2.  4.100 /  2.  4.100
  libpostproc    54.  2.100 / 54.  2.100
Input #0, yuv4mpegpipe, from 'Input/y4m/sintel.y4m':
  Duration: 00:00:20.83, start: 0.000000, bitrate: 2057307 kb/s
    Stream #0:0: Video: rawvideo (I420 / 0x30323449), yuv420p(progressive), 4096x1744, SAR 1:1 DAR 256:109, 24 fps, 24 tbr, 24 tbn, 24 tbc
Output #0, matroska, to 'Output/NVENCh264/encoded/sintelbd10000k.mkv':
  Metadata:
    encoder         : Lavf57.57.100
    Stream #0:0: Video: h264 (h264_nvenc) (Main) (H264 / 0x34363248), yuv420p, 4096x1744 [SAR 1:1 DAR 256:109], q=-1--1, 10000 kb/s, 24 fps, 1k tbn, 24 tbc
    Metadata:
      encoder         : Lavc57.66.101 h264_nvenc
    Side data:
      cpb: bitrate max/min/avg: 0/0/10000000 buffer size: 20000000 vbv_delay: -1
Stream mapping:
  Stream #0:0 -> #0:0 (rawvideo (native) -> h264 (h264_nvenc))
Press [q] to stop, [?] for help
frame=    7 fps=0.0 q=0.0 size=       0kB time=00:00:00.00 bitrate=N/A speed=   0x    frame=   27 fps= 26 q=0.0 size=       0kB time=00:00:00.00 bitrate=N/A speed=   0x    frame=   48 fps= 31 q=34.0 size=       1kB time=00:00:00.70 bitrate=   8.4kbits/s speed=0.454x    frame=   69 fps= 33 q=33.0 size=       1kB time=00:00:01.58 bitrate=   3.8kbits/s speed=0.765x    frame=   90 fps= 35 q=33.0 size=       1kB time=00:00:02.45 bitrate=   2.4kbits/s speed=0.954x    frame=  111 fps= 36 q=30.0 size=       1kB time=00:00:03.33 bitrate=   1.8kbits/s speed=1.08x    frame=  131 fps= 36 q=31.0 size=    5132kB time=00:00:04.16 bitrate=10085.8kbits/s speed=1.16x    frame=  152 fps= 37 q=31.0 size=    5796kB time=00:00:05.04 bitrate=9415.1kbits/s speed=1.23x    frame=  173 fps= 37 q=32.0 size=    5796kB time=00:00:05.91 bitrate=8023.0kbits/s speed=1.28x    frame=  192 fps= 27 q=31.0 size=    5796kB time=00:00:06.70 bitrate=7077.1kbits/s speed=0.944x    frame=  193 fps= 19 q=30.0 size=    5796kB time=00:00:06.75 bitrate=7033.1kbits/s speed=0.654x    frame=  210 fps= 19 q=30.0 size=    5796kB time=00:00:07.45 bitrate=6365.5kbits/s speed=0.688x    frame=  231 fps= 20 q=31.0 size=    5796kB time=00:00:08.33 bitrate=5697.2kbits/s speed=0.735x    frame=  252 fps= 21 q=32.0 size=    5796kB time=00:00:09.20 bitrate=5155.9kbits/s speed=0.774x    frame=  272 fps= 22 q=31.0 size=   10943kB time=00:00:10.04 bitrate=8926.5kbits/s speed=0.809x    frame=  293 fps= 23 q=30.0 size=   10943kB time=00:00:10.91 bitrate=8211.1kbits/s speed=0.845x    frame=  313 fps= 23 q=31.0 size=   12468kB time=00:00:11.75 bitrate=8691.6kbits/s speed=0.876x    frame=  334 fps= 24 q=29.0 size=   12468kB time=00:00:12.62 bitrate=8089.3kbits/s speed=0.907x    frame=  355 fps= 25 q=28.0 size=   12468kB time=00:00:13.50 bitrate=7565.0kbits/s speed=0.935x    frame=  376 fps= 25 q=28.0 size=   12468kB time=00:00:14.37 bitrate=7104.6kbits/s speed=0.962x    frame=  397 fps= 26 q=26.0 size=   12468kB time=00:00:15.25 bitrate=6696.9kbits/s speed=0.987x    frame=  418 fps= 26 q=25.0 size=   17083kB time=00:00:16.12 bitrate=8678.3kbits/s speed=1.01x    frame=  439 fps= 27 q=28.0 size=   17083kB time=00:00:17.00 bitrate=8231.6kbits/s speed=1.03x    frame=  460 fps= 27 q=28.0 size=   18808kB time=00:00:17.87 bitrate=8619.2kbits/s speed=1.05x    frame=  481 fps= 27 q=28.0 size=   18808kB time=00:00:18.75 bitrate=8217.0kbits/s speed=1.07x    frame=  500 fps= 28 q=28.0 Lsize=   23302kB time=00:00:20.79 bitrate=9180.6kbits/s speed=1.15x    
video:23297kB audio:0kB subtitle:0kB other streams:0kB global headers:0kB muxing overhead: 0.020883%
bench: utime=0.956s
bench: maxrss=1201740kB
